<?xml version="1.0" encoding="UTF-8"?>
<svg xmlns="http://www.w3.org/2000/svg" xmlns:xlink="http://www.w3.org/1999/xlink" viewBox="0 0 48 48" width="48px" height="48px">
<g id="surface7374226">
<path style=" stroke:none;fill-rule:nonzero;fill:rgb(90.588236%,29.803923%,23.529412%);fill-opacity:1;" d="M 20.5 4 C 20.007812 3.992188 19.546875 4.226562 19.261719 4.625 C 18.976562 5.023438 18.902344 5.539062 19.066406 6 L 14.640625 6 C 12.796875 6 11.085938 6.917969 10.0625 8.449219 L 7.699219 12 L 7.5 12 C 6.960938 11.992188 6.457031 12.277344 6.183594 12.742188 C 5.910156 13.210938 5.910156 13.789062 6.183594 14.257812 C 6.457031 14.722656 6.960938 15.007812 7.5 15 L 40.5 15 C 41.039062 15.007812 41.542969 14.722656 41.816406 14.257812 C 42.089844 13.789062 42.089844 13.210938 41.816406 12.742188 C 41.542969 12.277344 41.039062 11.992188 40.5 12 L 40.300781 12 L 37.9375 8.449219 C 36.914062 6.917969 35.203125 6 33.359375 6 L 28.933594 6 C 29.097656 5.539062 29.023438 5.023438 28.738281 4.625 C 28.453125 4.226562 27.992188 3.992188 27.5 4 Z M 8.972656 18 L 11.125 38.085938 C 11.425781 40.886719 13.777344 43 16.59375 43 L 31.40625 43 C 34.222656 43 36.574219 40.886719 36.875 38.085938 L 39.027344 18 Z M 8.972656 18 "/>
</g>
</svg>
